<?xml version="1.0" encoding="utf-8"?>
<!-- Generator: Adobe Illustrator 23.0.1, SVG Export Plug-In . SVG Version: 6.00 Build 0)  -->
<svg version="1.1" id="Layer_1" xmlns="http://www.w3.org/2000/svg" xmlns:xlink="http://www.w3.org/1999/xlink" x="0px" y="0px"
	 viewBox="0 0 487.9 460.6" style="enable-background:new 0 0 487.9 460.6;" xml:space="preserve">
<style type="text/css">
	.st0{fill:none;}
	.st1{fill:none;stroke:#FF0000;stroke-width:0.1;stroke-miterlimit:10;}
</style>
<g>
	<path class="st0" d="M403.7,274c-16.4,1.1-27.8,3.8-35.5,6.5c-3.7,2.4-7.5,5.7-11.2,9.9c-7.9,9-17,18.9-24.4,26.9
		c-5.2,5.6-9.9,10.2-13.5,13.8c-2.2,2.3-7.4,8.6-9.2,11.2c-1.9,2.9-4.2,6.7-6.8,11.4c-4.5,8.3-9.3,19.5-15.5,35.6
		c3,9.4,7.2,16.2,12.8,17.5c9.1,2,28.2-1.8,49.6-13c24.5-14.2,45.6-33.1,61.8-55.3c6.4-9.5,12.2-20,17.1-31.7
		C429,306.7,442.7,271.3,403.7,274z"/>
	<path class="st0" d="M429,168.4c0,0-23.5-24-35.5-62.3c-4.9-9.1-11.1-15-11.1-15s0.1-0.1,0.3-0.2c-36.4-32.1-85.2-51.9-139-52
		C190,39,141.2,58.8,104.9,90.8c0.4,0.2,0.6,0.3,0.6,0.3s-6.2,5.9-11.1,15c-12,38.4-35.5,62.3-35.5,62.3s-6.6,4.8-4.9,17
		c1.6,12.3,15.3,11.2,20.8,11.7c3.6,0.4,28.3-12.7,44.7-21.7c8-6.4,16.4-11.8,24.8-16.1c0.3-0.1,0.8,0.5,1.4,1.4
		c13.3-9.5,26.3-12.9,26.3-12.9s-3.1,0.9-7.8,3.1c34.3-14.8,75.1-14.1,79.5-14c4.4-0.1,46-0.8,80.5,14.4c-5.2-2.5-8.7-3.5-8.7-3.5
		s13.1,3.4,26.4,12.9c0.6-1,1.2-1.8,1.5-1.6c8.5,4.4,16.9,9.7,24.9,16.2c16.4,9,41.3,22.1,44.9,21.8c5.5-0.5,19.1,0.5,20.8-11.7
		C435.5,173.2,429,168.4,429,168.4z"/>
	<path class="st0" d="M177.7,342.4c-1.7-2.6-6.9-8.9-9.2-11.2c-3.5-3.6-8.3-8.2-13.5-13.8c-7.4-8-16.5-17.9-24.4-26.9
		c-4-4.5-8.1-7.9-12-10.4c-7.7-2.6-18.8-5-34.5-6.1c-39-2.7-25.3,32.7-25.3,32.7c6.4,15.6,14.6,29.1,23.7,40.8
		c14,16.9,30.9,31.6,50.1,43.4c23.4,13.3,44.9,17.9,54.7,15.8c5.5-1.2,9.6-7.9,12.7-17c-6.3-16.2-11-27.6-15.6-35.9
		C181.9,349,179.6,345.3,177.7,342.4z"/>
	<path class="st1" d="M410.3,61.6c0,0.1-0.1,0.2-0.1,0.3C367.1,23.4,308.9,0.2,244.1,0v0c-0.1,0-0.3,0-0.4,0c-0.1,0-0.3,0-0.4,0v0
		c-64,0.2-122.2,23.6-165.6,62.2c-0.1-0.2-0.2-0.3-0.2-0.5c0,0-89.8,69-76.1,188.4c0,0,4.1,94.7,91.6,160.7c0,0,65.4,49.9,150.8,50
		v0c0,0,0.1,0,0.1,0s0.1,0,0.1,0v0c85.4-0.1,150.8-50,150.8-50c87.5-66,91.6-160.7,91.6-160.7C500.1,130.7,410.3,61.6,410.3,61.6z
		 M187.3,406.7c-9.8,2.2-31.3-2.4-54.7-15.8c-19.2-11.8-36.1-26.5-50.1-43.4c-9.1-11.7-17.2-25.2-23.7-40.8c0,0-13.7-35.3,25.3-32.7
		c15.7,1.1,26.8,3.5,34.5,6.1c3.9,2.5,8,5.9,12,10.4c7.9,9,17,18.9,24.4,26.9c5.2,5.6,9.9,10.2,13.5,13.8c2.2,2.3,7.4,8.6,9.2,11.2
		c1.9,2.9,4.2,6.7,6.8,11.3c4.6,8.3,9.3,19.7,15.6,35.9C197,398.8,192.9,405.4,187.3,406.7z M429,306.7
		c-4.8,11.7-10.6,22.3-17.1,31.7c-16.2,22.2-37.3,41-61.8,55.3c-21.4,11.2-40.5,15-49.6,13c-5.6-1.2-9.8-8.1-12.8-17.5
		c6.2-16.1,10.9-27.3,15.5-35.6c2.6-4.7,4.9-8.4,6.8-11.4c1.7-2.6,6.9-8.9,9.2-11.2c3.5-3.6,8.3-8.2,13.5-13.8
		c7.4-8,16.5-17.9,24.4-26.9c3.7-4.2,7.5-7.4,11.2-9.9c7.7-2.7,19.1-5.3,35.5-6.5C442.7,271.3,429,306.7,429,306.7z M433.9,185.4
		c-1.6,12.3-15.3,11.2-20.8,11.7c-3.6,0.4-28.5-12.8-44.9-21.8c-8-6.4-16.4-11.8-24.9-16.2c-0.3-0.2-0.9,0.6-1.5,1.6
		c-13.4-9.6-26.4-12.9-26.4-12.9s3.5,1,8.7,3.5c-34.5-15.3-76.1-14.5-80.5-14.4c-4.4-0.1-45.2-0.8-79.5,14c4.6-2.2,7.8-3.1,7.8-3.1
		s-13,3.4-26.3,12.9c-0.6-0.9-1.1-1.6-1.4-1.4c-8.4,4.3-16.9,9.7-24.8,16.1c-16.4,9-41.1,22-44.7,21.7c-5.5-0.5-19.1,0.5-20.8-11.7
		c-1.6-12.3,4.9-17,4.9-17s23.5-24,35.5-62.3c4.9-9.1,11.1-15,11.1-15s-0.2-0.1-0.6-0.3c36.3-32,85.1-51.7,138.8-51.8
		c53.7,0.1,102.6,19.9,139,52c-0.2,0.1-0.3,0.2-0.3,0.2s6.2,5.9,11.1,15c12,38.4,35.5,62.3,35.5,62.3S435.5,173.2,433.9,185.4z"/>
</g>
</svg>
